<?xml version="1.0" standalone="no"?>
<!DOCTYPE svg PUBLIC "-//W3C//DTD SVG 20010904//EN"
 "http://www.w3.org/TR/2001/REC-SVG-20010904/DTD/svg10.dtd">
<svg version="1.0" xmlns="http://www.w3.org/2000/svg"
 width="512.000000pt" height="512.000000pt" viewBox="0 0 512.000000 512.000000"
 preserveAspectRatio="xMidYMid meet">

<g transform="translate(0.000000,512.000000) scale(0.100000,-0.100000)"
fill="#000000" stroke="none">
<path d="M239 4227 c-48 -26 -83 -70 -99 -126 -6 -23 -10 -474 -10 -1268 l0
-1233 -65 0 -65 0 0 -160 0 -160 204 0 204 0 12 -37 c41 -128 151 -263 258
-317 151 -76 343 -75 486 2 51 27 163 129 185 167 11 19 12 19 33 -10 68 -91
177 -167 287 -199 70 -21 202 -21 272 0 172 51 311 186 360 352 l12 42 742 0
743 0 7 -37 c19 -105 148 -264 256 -317 170 -82 366 -74 515 22 102 66 186
176 219 287 l12 40 157 3 156 3 0 159 0 160 -50 0 -50 0 0 495 c0 349 -3 501
-11 517 -12 23 -493 484 -570 546 l-41 33 -384 -3 -383 -3 -23 -23 -23 -23 -3
-769 -2 -770 -85 0 -85 0 -2 1259 -3 1259 -30 44 c-18 25 -49 52 -75 66 l-44
22 -1487 0 -1486 0 -44 -23z m4244 -1524 l187 -176 0 -88 0 -89 -400 0 -400 0
0 265 0 265 213 0 212 0 188 -177z m-3455 -1092 c187 -96 188 -356 1 -452
-113 -57 -245 -21 -321 88 -31 45 -33 53 -33 134 0 78 3 90 30 134 33 54 90
98 145 114 50 14 131 6 178 -18z m890 0 c44 -23 93 -73 117 -120 65 -129 -13
-303 -156 -345 -69 -21 -97 -20 -162 4 -166 62 -216 268 -97 403 74 84 200
108 298 58z m2499 -3 c84 -42 133 -124 133 -223 0 -143 -107 -250 -250 -249
-206 1 -321 226 -203 396 28 42 94 85 146 99 48 12 123 2 174 -23z"/>
</g>
</svg>
